<svg xmlns="http://www.w3.org/2000/svg" viewBox="0 0 600.84 84.6"><defs><style>.a{fill:#1a1818;}</style></defs><title>shape-logo</title><path class="a" d="M20.18.06C32.81.06,39.3,7.61,39.3,20.83v2.6H27V20c0-5.9-2.36-8.14-6.49-8.14S14,14.1,14,20s2.6,10.5,11.09,17.94C36,47.49,39.42,54.34,39.42,63.78c0,13.22-6.61,20.77-19.35,20.77S.71,77,.71,63.78V58.7H13v5.9c0,5.9,2.6,8,6.73,8s6.73-2.12,6.73-8-2.6-10.5-11.09-17.94C4.49,37.11,1.07,30.27,1.07,20.83,1.07,7.61,7.56.06,20.18.06Z" transform="translate(-0.71 -0.06)"/><path class="a" d="M54.4,83.6h-13V1h13V36.4H69.15V1H82.37V83.6H69.15V48.2H54.4Z" transform="translate(-0.71 -0.06)"/><path class="a" d="M128.39,83.6h-13.1l-2.24-15H97.12l-2.24,15H83L96.17,1h19ZM98.77,57.4h12.51l-6.14-41.77h-.24Z" transform="translate(-0.71 -0.06)"/><path class="a" d="M167.44,21.42V32.15c0,13.22-6.37,20.41-19.35,20.41H142v31H129V1h19.12C161.07,1,167.44,8.2,167.44,21.42ZM142,12.8v28h6.14c4.13,0,6.37-1.89,6.37-7.79V20.59c0-5.9-2.24-7.79-6.37-7.79Z" transform="translate(-0.71 -0.06)"/><path class="a" d="M181,35.81h17.82v11.8H181V71.8h22.42V83.6H168V1h35.4V12.8H181Z" transform="translate(-0.71 -0.06)"/><path class="a" d="M257.36,21.42V32.15c0,13.22-6.37,20.41-19.35,20.41h-6.14v31h-13V1H238C251,1,257.36,8.2,257.36,21.42ZM231.87,12.8v28H238c4.13,0,6.37-1.89,6.37-7.79V20.59c0-5.9-2.24-7.79-6.37-7.79Z" transform="translate(-0.71 -0.06)"/><path class="a" d="M285.09,83.6c-.71-2.12-1.18-3.42-1.18-10.15v-13c0-7.67-2.6-10.5-8.5-10.5h-4.48V83.6H258V1h19.59C291,1,296.77,7.26,296.77,20v6.49c0,8.5-2.71,13.92-8.5,16.64v.24c6.49,2.71,8.61,8.85,8.61,17.46V73.57c0,4,.12,7,1.42,10ZM270.93,12.8V38.17H276c4.84,0,7.79-2.12,7.79-8.73V21.3c0-5.9-2-8.5-6.61-8.5Z" transform="translate(-0.71 -0.06)"/><path class="a" d="M298.9,20.83c0-13.22,7-20.77,19.71-20.77s19.71,7.55,19.71,20.77v43c0,13.22-7,20.77-19.71,20.77S298.9,77,298.9,63.78Zm13,43.78c0,5.9,2.6,8.14,6.73,8.14s6.73-2.24,6.73-8.14V20c0-5.9-2.6-8.14-6.73-8.14s-6.73,2.24-6.73,8.14Z" transform="translate(-0.71 -0.06)"/><path class="a" d="M341.26,1h20.53c13,0,19.35,7.2,19.35,20.41V63.19c0,13.21-6.37,20.41-19.35,20.41H341.26Zm13,11.8v59h7.32c4.13,0,6.61-2.12,6.61-8v-43c0-5.9-2.48-8-6.61-8Z" transform="translate(-0.71 -0.06)"/><path class="a" d="M396.36,1V64.72c0,5.9,2.6,8,6.73,8s6.73-2.12,6.73-8V1h12.27V63.89c0,13.21-6.61,20.77-19.35,20.77s-19.35-7.55-19.35-20.77V1Z" transform="translate(-0.71 -0.06)"/><path class="a" d="M463.15,52.8v11c0,13.22-6.61,20.77-19.35,20.77S424.45,77,424.45,63.78v-43C424.45,7.61,431.05.06,443.8.06s19.35,7.55,19.35,20.77v8H450.88V20c0-5.9-2.6-8.14-6.73-8.14s-6.73,2.24-6.73,8.14V64.6c0,5.9,2.6,8,6.73,8s6.73-2.12,6.73-8V52.8Z" transform="translate(-0.71 -0.06)"/><path class="a" d="M461.85,1H502V12.8H488.4V83.6h-13V12.8H461.85Z" transform="translate(-0.71 -0.06)"/><path class="a" d="M502.21,1h13V83.6h-13Z" transform="translate(-0.71 -0.06)"/><path class="a" d="M518.13,20.83c0-13.22,7-20.77,19.71-20.77s19.71,7.55,19.71,20.77v43c0,13.22-7,20.77-19.71,20.77S518.13,77,518.13,63.78Zm13,43.78c0,5.9,2.6,8.14,6.73,8.14s6.73-2.24,6.73-8.14V20c0-5.9-2.6-8.14-6.73-8.14s-6.73,2.24-6.73,8.14Z" transform="translate(-0.71 -0.06)"/><path class="a" d="M572.3,23.78h-.24V83.6H560.38V1h16.28l13.1,49.44H590V1h11.56V83.6H588.23Z" transform="translate(-0.71 -0.06)"/></svg>